<?xml version="1.0" encoding="utf-8"?>
<!-- Generator: Adobe Illustrator 16.0.0, SVG Export Plug-In . SVG Version: 6.00 Build 0)  -->
<!DOCTYPE svg PUBLIC "-//W3C//DTD SVG 1.1//EN" "http://www.w3.org/Graphics/SVG/1.1/DTD/svg11.dtd">
<svg version="1.1" id="图层_1" xmlns="http://www.w3.org/2000/svg" xmlns:xlink="http://www.w3.org/1999/xlink" x="0px" y="0px"
	 width="54px" height="54px" viewBox="0 0 54 54" enable-background="new 0 0 54 54" xml:space="preserve">
<path fill="#E3EFFF" d="M17.188,19.229c0,6.364,5.13,11.524,11.458,11.524c6.328,0,11.459-5.16,11.459-11.524
	c0-6.365-5.131-11.524-11.459-11.524C22.318,7.705,17.188,12.864,17.188,19.229z"/>
<path fill="#58AEFF" d="M39.775,32.795c0.197-0.329,0.066-0.725-0.264-0.922c-2.896-1.646-6.124-2.699-9.482-3.095
	c4.741-1.712,8.166-6.19,8.166-11.524c0-6.717-5.466-12.183-12.183-12.183s-12.117,5.466-12.117,12.183
	c0,5.531,3.688,10.207,8.759,11.722c-9.813,1.712-17.781,9.088-20.085,19.098c-0.066,0.329,0.132,0.724,0.461,0.79h0.132
	c0.329,0,0.592-0.197,0.658-0.527C6.322,37.471,15.871,29.897,27,29.897c4.148,0,8.232,1.054,11.787,3.095
	C39.184,33.19,39.578,33.059,39.775,32.795z M15.212,17.254c0-5.993,4.873-10.866,10.8-10.866c5.927,0,10.866,4.873,10.866,10.866
	c0,5.992-4.873,10.865-10.8,10.865S15.212,23.246,15.212,17.254z M50.773,41.093h-5.861v-5.861c0-0.396-0.264-0.658-0.658-0.658
	c-0.396,0-0.658,0.263-0.658,0.658v5.861h-5.861c-0.396,0-0.658,0.263-0.658,0.658s0.263,0.659,0.658,0.659h5.861v5.86
	c0,0.396,0.263,0.659,0.658,0.659c0.395,0,0.658-0.264,0.658-0.659v-5.86h5.861c0.395,0,0.658-0.264,0.658-0.659
	S51.103,41.093,50.773,41.093z"/>
</svg>
