<?xml version="1.0" encoding="utf-8"?>
<!-- Generator: Adobe Illustrator 21.0.0, SVG Export Plug-In . SVG Version: 6.00 Build 0)  -->
<svg version="1.1" id="图层_1" xmlns="http://www.w3.org/2000/svg" xmlns:xlink="http://www.w3.org/1999/xlink" x="0px" y="0px"
	 viewBox="0 0 54 54" style="enable-background:new 0 0 54 54;" xml:space="preserve">
<style type="text/css">
	.st0{fill:#E3EFFF;}
	.st1{fill:#58AEFF;}
</style>
<title>贷后</title>
<desc>Created with Sketch.</desc>
<g id="__wesketch_export">
	<g id="贷后">
		<g id="Shape" transform="translate(2.500000, 0.000000)">
			<path class="st0" d="M27.9,11h14c3.6,0,6.5,2.8,6.5,6.4v29.5c0,3.5-2.9,6.4-6.5,6.4H12.8c-3.6,0-6.5-2.8-6.5-6.4V17.4
				c0-3.5,2.9-6.4,6.5-6.4h7.1"/>
			<path class="st1" d="M40.9,4.7H26.2L30,1.1c0.2-0.2,0.3-0.6,0.1-0.9c-0.2-0.2-0.6-0.3-0.9-0.1l-4.9,4.5c-0.1,0.1-0.2,0.3-0.2,0.5
				c0,0.2,0.1,0.4,0.2,0.5l4.9,4.5c0.1,0.1,0.3,0.2,0.5,0.2c0.2,0,0.3-0.1,0.5-0.2c0.3-0.3,0.3-0.7-0.1-0.9L26.5,6H41
				c3.7,0,6.7,3,6.7,6.6v33.4c0,3.6-3,6.6-6.7,6.6H8c-3.7,0-6.7-3-6.7-6.6V12.6C1.4,9,4.3,6,8,6h8.1c0.4,0,0.7-0.3,0.7-0.7
				c0-0.4-0.3-0.7-0.7-0.7H8c-4.4,0-8,3.5-8,7.9v33.4c0,4.4,3.6,7.9,8,7.9h32.9c4.4,0,8-3.6,8-7.9V12.6C48.9,8.2,45.4,4.7,40.9,4.7
				L40.9,4.7z"/>
			<path class="st1" d="M16.4,25.5c0,0.4,0.3,0.7,0.7,0.7h6.7v6h-6.7c-0.4,0-0.7,0.3-0.7,0.7s0.3,0.7,0.7,0.7h6.7v6.7
				c0,0.4,0.3,0.7,0.7,0.7s0.7-0.3,0.7-0.7v-6.7h6.7c0.4,0,0.7-0.3,0.7-0.7s-0.3-0.7-0.7-0.7h-6.7v-6h6.7c0.4,0,0.7-0.3,0.7-0.7
				c0-0.4-0.3-0.7-0.7-0.7h-6l5-6.1c0.2-0.3,0.2-0.7-0.1-0.9c-0.3-0.2-0.7-0.2-0.9,0.1l-5.4,6.6l-5.4-6.6c-0.3-0.3-0.7-0.3-0.9-0.1
				c-0.3,0.2-0.3,0.7-0.1,0.9l5,6.1h-6C16.7,24.9,16.4,25.1,16.4,25.5z"/>
		</g>
	</g>
</g>
</svg>
