<?xml version="1.0" encoding="utf-8"?>
<!-- Generator: Adobe Illustrator 21.0.0, SVG Export Plug-In . SVG Version: 6.00 Build 0)  -->
<svg version="1.1" id="图层_1" xmlns="http://www.w3.org/2000/svg" xmlns:xlink="http://www.w3.org/1999/xlink" x="0px" y="0px"
	 viewBox="0 0 54 54" style="enable-background:new 0 0 54 54;" xml:space="preserve">
<style type="text/css">
	.st0{fill:#E3EFFF;}
	.st1{fill:#58AEFF;}
</style>
<title>Group 9</title>
<desc>Created with Sketch.</desc>
<g id="__wesketch_export">
	<g id="Group-9">
		<g transform="translate(3.375000, 0.000000)">
			<path id="Combined-Shape" class="st0" d="M40.3,7.2c3.4,0.9,6,4,6,7.7V45c0,4.4-3.6,8-8,8H14.8c-3.8,0-7-2.7-7.8-6.2
				C7.5,47,8.1,47,8.7,47h24.1c4.3,0,7.7-3.6,7.7-8v-3.4v-8.6V9C40.5,8.4,40.4,7.8,40.3,7.2z"/>
			<path id="Rectangle-5" class="st1" d="M39.8,35.7V39c0,4-3.1,7.3-7,7.3H8.7c-3.9,0-7-3.3-7-7.3V9c0-4,3.1-7.3,7-7.3h24.1
				c3.9,0,7,3.3,7,7.3v18.1c0,0.4,0.3,0.8,0.7,0.8s0.7-0.3,0.7-0.8V9c0-4.8-3.8-8.8-8.4-8.8H8.7C4,0.2,0.2,4.1,0.2,9v30
				c0,4.8,3.8,8.8,8.4,8.8h24.1c4.7,0,8.4-3.9,8.4-8.8v-3.4c0-0.4-0.3-0.8-0.7-0.8S39.8,35.2,39.8,35.7z"/>
			<path id="Rectangle-5-Copy" class="st1" d="M45.6,11v34c0,4-3.1,7.3-7,7.3h-28c-0.4,0-0.7,0.3-0.7,0.8c0,0.4,0.3,0.8,0.7,0.8h28
				c4.7,0,8.4-3.9,8.4-8.8V11c0-0.4-0.3-0.8-0.7-0.8C45.9,10.2,45.6,10.6,45.6,11z"/>
			<path id="Path-19" class="st1" d="M10.6,14.5h18.8c0.4,0,0.7-0.3,0.7-0.8S29.8,13,29.4,13H10.6c-0.4,0-0.7,0.3-0.7,0.8
				S10.2,14.5,10.6,14.5z"/>
			<path id="Path-19-Copy" class="st1" d="M10.6,21.7h13.5c0.4,0,0.7-0.3,0.7-0.8c0-0.4-0.3-0.8-0.7-0.8H10.6
				c-0.4,0-0.7,0.3-0.7,0.8C9.9,21.4,10.2,21.7,10.6,21.7z"/>
			<path id="Path-19-Copy-2" class="st1" d="M10.6,31.8h14c0.4,0,0.7-0.3,0.7-0.8c0-0.4-0.3-0.8-0.7-0.8h-14c-0.4,0-0.7,0.3-0.7,0.8
				C9.9,31.4,10.2,31.8,10.6,31.8z"/>
		</g>
	</g>
</g>
</svg>
