<?xml version="1.0" encoding="utf-8"?>
<!-- Generator: Adobe Illustrator 21.0.0, SVG Export Plug-In . SVG Version: 6.00 Build 0)  -->
<svg version="1.1" id="图层_1" xmlns="http://www.w3.org/2000/svg" xmlns:xlink="http://www.w3.org/1999/xlink" x="0px" y="0px"
	 viewBox="0 0 54 54" style="enable-background:new 0 0 54 54;" xml:space="preserve">
<style type="text/css">
	.st0{fill:#E3EFFF;}
	.st1{fill:#58AEFF;}
</style>
<title>业务</title>
<desc>Created with Sketch.</desc>
<g id="__wesketch_export">
	<g id="业务">
		<g id="Shape" transform="translate(2.953125, 0.000000)">
			<path class="st0" d="M2.7,47.6c0,0,11-1.5,22.9-9.2c11.9-7.7,19.3-16.8,19.3-16.8V54H2.7V47.6z"/>
			<path class="st1" d="M47.6,8.1L46,0.7c-0.1-0.2-0.2-0.4-0.4-0.5C45.5,0,45.3,0,45.1,0.1l-7,2c-0.4,0.1-0.6,0.5-0.5,0.8
				c0.1,0.3,0.4,0.5,0.7,0.5h0.2l5.1-1.5c-0.2,0.5-0.5,1.1-0.8,1.5c-8.4,17-24.3,29-42.3,32.1C0.2,35.6,0,36,0.1,36.4
				c0.1,0.4,0.4,0.6,0.7,0.6h0.1c18.4-3.2,34.7-15.4,43.3-32.8c0.3-0.5,0.5-1.1,0.8-1.5l1.2,5.8C46.3,8.7,46.5,9,46.9,9H47
				C47.4,8.8,47.7,8.5,47.6,8.1z M44.9,17.4c-0.4,0-0.7,0.3-0.7,0.7v35.1c0,0.4,0.3,0.7,0.7,0.7c0.4,0,0.7-0.3,0.7-0.7V18.1
				C45.6,17.7,45.3,17.4,44.9,17.4z M30.9,31.1c-0.4,0-0.7,0.3-0.7,0.7v21.4c0,0.4,0.3,0.7,0.7,0.7c0.4,0,0.7-0.3,0.7-0.7V31.8
				C31.6,31.5,31.2,31.1,30.9,31.1z M16.8,39.5c-0.4,0-0.7,0.3-0.7,0.7v12.9c0,0.4,0.3,0.7,0.7,0.7c0.4,0,0.7-0.3,0.7-0.7V40.2
				C17.5,39.8,17.2,39.5,16.8,39.5z M2.7,44.1c-0.4,0-0.7,0.3-0.7,0.7v8.4c0,0.4,0.3,0.7,0.7,0.7c0.4,0,0.7-0.3,0.7-0.7v-8.4
				C3.4,44.4,3.1,44.1,2.7,44.1z"/>
		</g>
	</g>
</g>
</svg>
