<?xml version="1.0" encoding="utf-8"?>
<!-- Generator: Adobe Illustrator 21.0.0, SVG Export Plug-In . SVG Version: 6.00 Build 0)  -->
<svg version="1.1" id="图层_1" xmlns="http://www.w3.org/2000/svg" xmlns:xlink="http://www.w3.org/1999/xlink" x="0px" y="0px"
	 viewBox="0 0 54 54" style="enable-background:new 0 0 54 54;" xml:space="preserve">
<style type="text/css">
	.st0{fill:#E3EFFF;}
	.st1{fill:#58AEFF;}
</style>
<title>审核</title>
<desc>Created with Sketch.</desc>
<g id="__wesketch_export">
	<g id="审核">
		<g>
			<circle id="Oval-4" class="st0" cx="32.6" cy="32.6" r="17.3"/>
			<path id="Rectangle-4" class="st1" d="M19.3,52.2H8.7c-3.8,0-6.9-3.1-6.9-6.9V8.7c0-3.8,3.1-6.9,6.9-6.9h36.6
				c3.8,0,6.9,3.1,6.9,6.9v8.9c0,0.4,0.3,0.8,0.8,0.8s0.8-0.3,0.8-0.8V8.7c0-4.7-3.8-8.5-8.5-8.5H8.7C4,0.3,0.3,4,0.3,8.7v36.6
				c0,4.7,3.8,8.5,8.5,8.5h10.6c0.4,0,0.8-0.3,0.8-0.8S19.8,52.2,19.3,52.2z"/>
			<path id="Oval-4_1_" class="st1" d="M30.6,49.4c10.4,0,18.8-8.4,18.8-18.8S41,11.7,30.6,11.7s-18.8,8.4-18.8,18.8
				S20.2,49.4,30.6,49.4z M30.6,50.9c-11.3,0-20.4-9.1-20.4-20.4s9.1-20.4,20.4-20.4s20.4,9.1,20.4,20.4S41.8,50.9,30.6,50.9z"/>
			<path id="Oval-4_2_" class="st1" d="M26,16.6c-4.3,1.4-7.8,4.6-9.4,8.8c-0.2,0.4,0,0.8,0.4,1s0.8,0,1-0.4
				c1.5-3.8,4.6-6.7,8.4-7.9c0.4-0.1,0.6-0.6,0.5-1C26.8,16.7,26.4,16.5,26,16.6z M30.6,45.9c8.3,0,15-6.7,15-15
				c0-0.4-0.3-0.8-0.8-0.8c-0.4,0-0.8,0.3-0.8,0.8c0,7.5-6,13.5-13.5,13.5c-0.4,0-0.8,0.3-0.8,0.8C29.8,45.6,30.2,45.9,30.6,45.9z"
				/>
			<path id="Path-18" class="st1" d="M43.3,45.4l7.9,7.9c0.3,0.3,0.8,0.3,1.1,0c0.3-0.3,0.3-0.8,0-1.1l-7.9-7.9
				c-0.3-0.3-0.8-0.3-1.1,0S43,45.1,43.3,45.4z"/>
		</g>
	</g>
</g>
</svg>
