<?xml version="1.0" encoding="utf-8"?>
<!-- Generator: Adobe Illustrator 16.0.0, SVG Export Plug-In . SVG Version: 6.00 Build 0)  -->
<!DOCTYPE svg PUBLIC "-//W3C//DTD SVG 1.1//EN" "http://www.w3.org/Graphics/SVG/1.1/DTD/svg11.dtd">
<svg version="1.1" id="图层_1" xmlns="http://www.w3.org/2000/svg" xmlns:xlink="http://www.w3.org/1999/xlink" x="0px" y="0px"
	 width="54px" height="54px" viewBox="0 0 54 54" enable-background="new 0 0 54 54" xml:space="preserve">
<path fill="#E3EFFF" d="M30.358,11.063h13.961c3.556,0,6.454,2.832,6.454,6.388v29.371c0,3.49-2.898,6.388-6.454,6.388H15.344
	c-3.556,0-6.454-2.832-6.454-6.388V17.451c0-3.49,2.897-6.388,6.454-6.388h7.046"/>
<path fill="#58AEFF" d="M43.397,4.807H28.713l3.818-3.556c0.264-0.263,0.264-0.658,0.066-0.922
	c-0.264-0.263-0.658-0.263-0.922-0.065l-4.874,4.478c-0.131,0.132-0.197,0.33-0.197,0.527c0,0.197,0.066,0.395,0.197,0.526
	l4.874,4.479c0.131,0.131,0.264,0.197,0.461,0.197s0.329-0.066,0.461-0.197c0.264-0.264,0.264-0.659-0.066-0.922l-3.49-3.227h14.422
	c3.688,0,6.652,2.963,6.652,6.585v33.321c0,3.623-2.964,6.586-6.652,6.586h-32.86c-3.688,0-6.651-2.963-6.651-6.586V12.71
	c0-3.622,2.963-6.585,6.651-6.585h8.034c0.395,0,0.658-0.264,0.658-0.659s-0.263-0.659-0.658-0.659h-8.034
	c-4.412,0-7.968,3.49-7.968,7.903v33.321c0,4.347,3.556,7.902,7.968,7.902h32.795c4.412,0,7.968-3.556,7.968-7.902V12.71
	C51.365,8.297,47.81,4.807,43.397,4.807z"/>
<path fill="#58AEFF" d="M18.966,25.551c0,0.395,0.264,0.659,0.659,0.659h6.717v5.993h-6.717c-0.395,0-0.659,0.263-0.659,0.658
	c0,0.395,0.264,0.658,0.659,0.658h6.717v6.651c0,0.396,0.264,0.658,0.659,0.658s0.658-0.263,0.658-0.658v-6.718h6.717
	c0.396,0,0.659-0.263,0.659-0.658c0-0.395-0.264-0.658-0.659-0.658h-6.717v-5.993h6.717c0.396,0,0.659-0.264,0.659-0.659
	s-0.264-0.659-0.659-0.659h-5.992l5.005-6.124c0.198-0.264,0.198-0.725-0.065-0.922c-0.264-0.197-0.725-0.197-0.922,0.066L27,24.432
	l-5.4-6.585c-0.264-0.263-0.659-0.329-0.922-0.066c-0.264,0.198-0.33,0.659-0.066,0.922l5.005,6.124h-5.993
	C19.229,24.893,18.966,25.156,18.966,25.551z"/>
</svg>
