<?xml version="1.0" encoding="utf-8"?>
<!-- Generator: Adobe Illustrator 16.0.0, SVG Export Plug-In . SVG Version: 6.00 Build 0)  -->
<!DOCTYPE svg PUBLIC "-//W3C//DTD SVG 1.1//EN" "http://www.w3.org/Graphics/SVG/1.1/DTD/svg11.dtd">
<svg version="1.1" id="图层_1" xmlns="http://www.w3.org/2000/svg" xmlns:xlink="http://www.w3.org/1999/xlink" x="0px" y="0px"
	 width="54px" height="54px" viewBox="0 0 54 54" enable-background="new 0 0 54 54" xml:space="preserve">
<path fill="#E3EFFF" d="M7.244,46.229c0,0,10.273-1.384,21.402-8.627c11.129-7.244,18.109-15.739,18.109-15.739v30.358H7.244V46.229
	z"/>
<path fill="#58AEFF" d="M49.258,9.285l-1.448-6.98c-0.065-0.197-0.197-0.329-0.329-0.461c-0.132-0.131-0.329-0.131-0.527-0.065
	l-6.52,1.91c-0.328,0.131-0.526,0.461-0.461,0.79c0.066,0.263,0.33,0.461,0.659,0.461h0.197l4.808-1.449
	c-0.197,0.461-0.461,0.988-0.725,1.449C37.01,20.875,22.193,32.07,5.268,34.969c-0.329,0.065-0.592,0.395-0.526,0.79
	c0.065,0.329,0.329,0.526,0.658,0.526h0.132c17.253-2.963,32.466-14.422,40.566-30.688c0.264-0.461,0.461-0.988,0.725-1.449
	l1.119,5.4c0.066,0.329,0.329,0.527,0.658,0.527h0.133C49.127,9.944,49.324,9.615,49.258,9.285z M46.625,3.227
	C46.69,3.292,46.625,3.292,46.625,3.227z M46.756,17.978c-0.395,0-0.658,0.263-0.658,0.659v32.861c0,0.395,0.264,0.658,0.658,0.658
	c0.396,0,0.658-0.264,0.658-0.658V18.637C47.414,18.307,47.086,17.978,46.756,17.978z M33.586,30.819
	c-0.396,0-0.659,0.264-0.659,0.659v20.02c0,0.395,0.264,0.658,0.659,0.658c0.395,0,0.658-0.264,0.658-0.658v-20.02
	C34.244,31.148,33.914,30.819,33.586,30.819z M20.415,38.722c-0.395,0-0.659,0.264-0.659,0.659v12.117
	c0,0.395,0.264,0.658,0.659,0.658s0.659-0.264,0.659-0.658V39.381C21.073,38.985,20.81,38.722,20.415,38.722z M7.244,43.002
	c-0.396,0-0.659,0.264-0.659,0.659v7.837c0,0.395,0.263,0.658,0.659,0.658c0.395,0,0.658-0.264,0.658-0.658v-7.837
	C7.902,43.266,7.639,43.002,7.244,43.002z"/>
</svg>
